<?xml version="1.0" encoding="UTF-8"?>
<svg id="Layer_1" xmlns="http://www.w3.org/2000/svg" baseProfile="tiny" version="1.2" viewBox="0 0 299.52 207">
  <!-- Generator: Adobe Illustrator 30.2.1, SVG Export Plug-In . SVG Version: 2.1.1 Build 1)  -->
  <rect width="299.52" height="207" fill="#201e20"/>
  <g>
    <path d="M27.71,47.16c7.29-1.18,17.13-1.85,27.29-1.85,16.46,0,26.78,2.68,35.32,8.54,9.46,6.53,15.54,17.23,15.54,32.99,0,17.48-6.62,28.85-15,35.38-9.43,7.32-23.5,10.57-40.28,10.57-11.02,0-18.47-.73-22.86-1.4V47.16ZM50.67,114.67c1.21.25,3.31.25,4.87.25,14.9.19,25.92-7.99,25.92-27.35,0-16.78-10-24.68-23.79-24.68-3.6,0-5.83.29-7.01.57v51.21Z" fill="#fff"/>
    <path d="M137.57,131.84l-27.29-85.85h25.25l9.11,33.76c2.71,9.62,5.06,19.01,7.13,30.03h.25c2.07-10.48,4.52-20.41,7.04-29.65l9.33-34.14h24.46l-28.09,85.85h-27.2Z" fill="#ee3725"/>
    <path d="M223.03,131.84l-27.29-85.85h25.25l9.11,33.76c2.71,9.62,5.06,19.01,7.13,30.03h.25c2.07-10.48,4.52-20.41,7.04-29.65l9.33-34.14h24.46l-28.09,85.85h-27.2Z" fill="#fff"/>
    <path d="M39.7,162.44h-8.63v6.72h9.65v3.44h-13.83v-22.89h13.33v3.44h-9.14v5.89h8.63v3.41Z" fill="#fff"/>
    <path d="M44.38,172.6v-22.89h4.78l5.91,9.83c1.51,2.53,2.84,5.19,3.9,7.67l.08-.02c-.3-3.04-.37-5.99-.37-9.49v-7.99h3.87v22.89h-4.33l-5.97-10.07c-1.46-2.51-2.98-5.3-4.1-7.9l-.11.02c.17,2.97.22,6,.22,9.76v8.19h-3.87Z" fill="#fff"/>
    <path d="M71.74,153.22h-6.54v-3.51h17.32v3.51h-6.6v19.38h-4.18v-19.38Z" fill="#fff"/>
    <path d="M97.99,162.44h-8.63v6.72h9.65v3.44h-13.83v-22.89h13.33v3.44h-9.14v5.89h8.63v3.41Z" fill="#fff"/>
    <path d="M102.67,150.02c1.59-.29,3.91-.49,6.34-.49,3.28,0,5.52.55,7.06,1.85,1.26,1.05,1.97,2.63,1.97,4.6,0,2.95-2,4.96-4.16,5.72v.1c1.66.63,2.62,2.21,3.19,4.43.73,2.86,1.35,5.49,1.81,6.38h-4.29c-.36-.66-.9-2.55-1.54-5.4-.66-2.98-1.74-3.95-4.12-4.01h-2.11v9.41h-4.15v-22.58ZM106.82,160.12h2.47c2.84,0,4.58-1.5,4.58-3.77,0-2.49-1.75-3.66-4.46-3.67-1.33,0-2.17.1-2.6.21v7.23Z" fill="#fff"/>
    <path d="M126.56,153.22h-6.54v-3.51h17.32v3.51h-6.6v19.38h-4.18v-19.38Z" fill="#fff"/>
    <path d="M142.11,166.13l-1.95,6.47h-4.32l7.35-22.89h5.33l7.44,22.89h-4.49l-2.07-6.47h-7.27ZM148.69,162.97l-1.8-5.64c-.44-1.42-.82-2.98-1.16-4.3h-.08c-.33,1.34-.68,2.93-1.09,4.29l-1.77,5.66h5.9Z" fill="#fff"/>
    <path d="M163.3,149.71v22.89h-4.18v-22.89h4.18Z" fill="#fff"/>
    <path d="M168.09,172.6v-22.89h4.78l5.91,9.83c1.51,2.53,2.84,5.19,3.9,7.67l.08-.02c-.3-3.04-.37-5.99-.37-9.49v-7.99h3.87v22.89h-4.33l-5.97-10.07c-1.46-2.51-2.98-5.3-4.1-7.9l-.11.02c.17,2.97.22,6,.22,9.76v8.19h-3.87Z" fill="#fff"/>
    <path d="M210.38,163.26c-.14-2.96-.29-6.51-.27-9.63h-.09c-.76,2.81-1.71,5.89-2.7,8.79l-3.36,9.91h-3.22l-3.04-9.77c-.9-2.94-1.71-6.05-2.32-8.93h-.08c-.1,3-.24,6.66-.41,9.77l-.51,9.2h-3.9l1.52-22.89h5.5l2.98,9.2c.82,2.7,1.56,5.42,2.11,7.97h.1c.61-2.5,1.4-5.3,2.29-7.99l3.18-9.18h5.42l1.31,22.89h-4.08l-.44-9.34Z" fill="#fff"/>
    <path d="M231.95,162.44h-8.63v6.72h9.65v3.44h-13.83v-22.89h13.33v3.44h-9.14v5.89h8.63v3.41Z" fill="#fff"/>
    <path d="M236.63,172.6v-22.89h4.78l5.91,9.83c1.51,2.53,2.84,5.19,3.9,7.67l.08-.02c-.3-3.04-.37-5.99-.37-9.49v-7.99h3.87v22.89h-4.33l-5.97-10.07c-1.46-2.51-2.98-5.3-4.1-7.9l-.11.02c.17,2.97.22,6,.22,9.76v8.19h-3.87Z" fill="#fff"/>
    <path d="M263.99,153.22h-6.54v-3.51h17.32v3.51h-6.6v19.38h-4.18v-19.38Z" fill="#fff"/>
  </g>
</svg>